<svg xmlns="http://www.w3.org/2000/svg" viewBox="0 0 250 150"><defs><style>.cls-1{isolation:isolate;}.cls-2{fill:#efeff4;}.cls-3{fill:#80808e;}.cls-4{fill:#9f9fad;}.cls-5{fill:#d6d6d8;}.cls-6{fill:#e3e3e5;}.cls-7{fill:#1877f2;}.cls-8{fill:#fff;}.cls-9{fill:#fa7050;fill-rule:evenodd;mix-blend-mode:multiply;}</style></defs><title>new-spot-illustrations-FINAL</title><g class="cls-1"><g id="Layer_1" data-name="Layer 1"><rect class="cls-2" x="52.06" y="21.53" width="142.12" height="108.5" rx="1.63"/><path class="cls-3" d="M194.18,32.32V23a1.43,1.43,0,0,0-1.44-1.44H53.5A1.44,1.44,0,0,0,52.06,23v9.35Z"/><rect class="cls-4" x="52.06" y="30.23" width="142.12" height="15.56"/><rect class="cls-5" x="76.88" y="35.01" width="111.88" height="5.98"/><rect class="cls-4" x="65.42" y="23.92" width="22.93" height="11.09"/><rect class="cls-6" x="52.06" y="66.9" width="142.12" height="63.13"/><path class="cls-7" d="M70.78,56.21a6.81,6.81,0,1,0-7.87,6.72V58.18H61.18v-2h1.73v-1.5a2.41,2.41,0,0,1,2.57-2.65A10,10,0,0,1,67,52.2v1.67h-.86A1,1,0,0,0,65,54.93v1.28h1.89l-.31,2H65v4.75A6.8,6.8,0,0,0,70.78,56.21Z"/><path class="cls-8" d="M66.62,58.18l.31-2H65V54.93a1,1,0,0,1,1.11-1.06H67V52.2a10,10,0,0,0-1.53-.14,2.41,2.41,0,0,0-2.57,2.65v1.5H61.18v2h1.73v4.75a7.13,7.13,0,0,0,2.13,0V58.18Z"/><circle class="cls-8" cx="123.12" cy="88.58" r="30.92"/><path class="cls-9" d="M136.59,75.11l-2.25,2.25v4.48h-4.48V77.36l-2.25-2.25-2.24,2.25v4.48h-4.49V77.36l-2.25-2.25-2.24,2.25v4.48H111.9V77.36l-2.24-2.25-2.25,2.25V102h4.49V97.55h4.49V102h4.49V97.55h4.49V102h4.49V97.55h4.48V102h4.49V77.36Zm-20.2,20.2H111.9V84.09h4.49Zm9,0h-4.55V84.09h4.55Zm8.93,0h-4.48V84.09h4.48Z"/></g></g></svg>