<?xml version="1.0" encoding="utf-8"?>
<svg id="Layer_1" data-name="Layer 1" viewBox="0 0 64 64" xmlns="http://www.w3.org/2000/svg">
  <defs>
    <style>.cls-1{fill:#591dcd;}.cls-2{fill:#8f51ff;}.cls-3{fill:#d8bcff;}.cls-4{fill:#c785ff;}</style>
  </defs>
  <title>new-icons</title>
  <path class="cls-1" d="M 62.817 3.677 C 62.644 3.502 62.453 3.344 62.246 3.207 C 62.684 5.091 60.934 6.856 60.161 7.613 L 21.665 48.63 C 20.919 49.381 19.899 49.794 18.84 49.774 C 17.525 49.742 16.269 49.227 15.309 48.328 C 15.598 48.993 16.009 49.597 16.52 50.111 C 17.508 51.151 18.869 51.756 20.302 51.793 C 21.358 51.81 22.376 51.406 23.128 50.666 L 61.624 9.615 C 62.598 8.639 65.189 6.05 62.817 3.677" style=""/>
  <path class="cls-2" d="M 21.665 48.63 L 60.161 7.613 C 60.934 6.856 62.684 5.091 62.246 3.207 C 60.043 1.693 57.772 3.964 56.898 4.889 L 15.88 43.568 C 14.692 44.877 14.431 46.782 15.224 48.363 C 16.184 49.261 17.442 49.775 18.756 49.808 C 19.848 49.842 20.904 49.415 21.665 48.63" style=""/>
  <path class="cls-3" d="M 19.766 51.137 L 18.571 52.314 L 17.393 53.508 L 16.2 54.702 L 14.939 55.896 L 13.744 57.073 L 12.567 58.268 L 7.875 53.508 L 9.07 52.314 L 10.246 51.137 L 11.44 49.943 L 12.635 48.748 L 13.812 47.572 L 14.939 46.378 C 15.594 45.721 17.192 46.243 18.505 47.572 C 18.91 47.967 19.256 48.42 19.53 48.916 C 20.035 49.825 20.135 50.699 19.697 51.137" style=""/>
  <path class="cls-1" d="M 8.935 52.835 C 7.03 52.872 5.372 54.149 4.848 55.981 L 4.848 55.981 C 4.848 56.064 4.848 56.148 4.764 56.216 C 6.807 56.657 8.25 58.482 8.212 60.571 C 8.207 61.392 7.961 62.193 7.505 62.875 C 9.128 62.411 10.618 61.563 11.844 60.404 L 11.844 60.404 C 14.317 58.139 13.411 54.047 10.213 53.037 C 9.799 52.907 9.369 52.838 8.935 52.835" style=""/>
  <path class="cls-4" d="M 4.647 56.266 C 3.89 58.722 3.166 60.689 0.879 61.665 L 0.879 61.665 L 0.879 61.665 L 0.879 61.665 C 0.519 61.847 0.291 62.218 0.291 62.622 C 0.261 63.209 0.699 63.713 1.283 63.767 C 3.411 63.788 5.533 63.487 7.573 62.875 C 8.006 62.186 8.228 61.385 8.212 60.571 C 8.218 58.446 6.69 56.627 4.595 56.266" style=""/>
</svg>