<?xml version="1.0" encoding="utf-8"?>
<svg id="Layer_1" data-name="Layer 1" viewBox="0 0 64 64" xmlns="http://www.w3.org/2000/svg">
  <defs>
    <style>.cls-1{fill:#fff;}.cls-1,.cls-2,.cls-3{fill-rule:evenodd;}.cls-2{fill:#a976fb;}.cls-3{fill:#905ffa;}.cls-4{mask:url(#mask);}</style>
    <mask id="mask" x="0" y="23.17" width="31.23" height="40.79" maskUnits="userSpaceOnUse">
      <g id="mask-2">
        <polygon id="path-1" class="cls-1" points="0 23.17 31.23 23.17 31.23 63.96 0 63.96 0 23.17"/>
      </g>
    </mask>
  </defs>
  <title>new-icons</title>
  <g id="section-whats-new" style="" transform="matrix(1.568627, 0, 0, 1.568627, 0.143609, -36.345085)">
    <g id="Group-23">
      <g id="Group-22">
        <path id="Fill-1" class="cls-2" d="M.19,43.6a20.36,20.36,0,0,1,31-17.38h0a.43.43,0,0,1,.21.37A.43.43,0,0,1,31,27h0a16.58,16.58,0,1,0,0,33.15h0a.43.43,0,0,1,.43.43.45.45,0,0,1-.21.37h0A20.36,20.36,0,0,1,.19,43.6"/>
        <path id="Fill-3" class="cls-2" d="M35.35,47.05a.42.42,0,0,0-.34-.42c-.83-.15-3.12-.69-3.9-1.46s-1.31-3.06-1.46-3.9a.42.42,0,0,0-.42-.34v6.12Z"/>
        <path id="Fill-5" class="cls-3" d="M 29.262 40.93 L 29.262 40.93 C 29.057 40.932 28.884 41.08 28.85 41.282 C 28.709 42.106 28.196 44.358 27.422 45.192 C 26.648 46.026 24.346 46.509 23.462 46.66 C 23.26 46.699 23.116 46.877 23.12 47.082 L 29.262 47.082 Z"/>
        <path id="Fill-7" class="cls-2" d="M29.23,47.05v6.12a.44.44,0,0,0,.42-.35c.15-.84.69-3.16,1.46-3.94S34.17,47.6,35,47.46a.42.42,0,0,0,.35-.41Z"/>
        <path id="Fill-9" class="cls-3" d="M 23.12 47.05 L 23.12 47.05 C 23.113 47.258 23.266 47.436 23.472 47.462 C 24.306 47.603 26.638 48.116 27.422 48.89 C 28.206 49.664 28.709 51.965 28.85 52.84 C 28.879 53.046 29.054 53.199 29.262 53.202 L 29.262 47.05 Z"/>
        <g id="Group-21">
          <g class="cls-4">
            <path id="Fill-19" class="cls-3" d="M25.3,61.48a17.92,17.92,0,1,1,5.91-34.81.5.5,0,0,0,0-.12.41.41,0,0,0-.22-.36h0a20.4,20.4,0,1,0,0,34.76h0a.43.43,0,0,0,.22-.37.36.36,0,0,0,0-.11,17.85,17.85,0,0,1-5.91,1"/>
          </g>
        </g>
        <path id="path-2" class="cls-2" d="M 40.47 35.465 C 40.472 35.338 40.383 35.228 40.259 35.203 C 39.743 35.11 38.319 34.774 37.833 34.295 C 37.348 33.817 37.018 32.392 36.925 31.869 C 36.901 31.745 36.791 31.656 36.665 31.658 L 36.665 35.465 Z" style=""/>
        <path id="path-3" class="cls-3" d="M 36.684 31.658 L 36.684 31.658 C 36.556 31.659 36.448 31.751 36.428 31.877 C 36.34 32.39 36.021 33.79 35.539 34.309 C 35.058 34.827 33.626 35.128 33.077 35.222 C 32.951 35.246 32.862 35.357 32.864 35.484 L 36.684 35.484 Z" style=""/>
        <path id="path-4" class="cls-2" d="M 36.665 35.465 L 36.665 39.271 C 36.791 39.268 36.899 39.177 36.925 39.053 C 37.018 38.531 37.354 37.087 37.833 36.603 C 38.313 36.118 39.737 35.806 40.253 35.719 C 40.377 35.699 40.469 35.59 40.47 35.465 Z" style=""/>
        <path id="path-5" class="cls-3" d="M 32.864 35.465 L 32.864 35.465 C 32.859 35.594 32.955 35.705 33.083 35.721 C 33.602 35.809 35.052 36.127 35.539 36.609 C 36.027 37.09 36.34 38.521 36.428 39.066 C 36.446 39.194 36.555 39.289 36.684 39.29 L 36.684 35.465 Z" style=""/>
      </g>
    </g>
  </g>
</svg>