<svg id="Layer_1" data-name="Layer 1" xmlns="http://www.w3.org/2000/svg" xmlns:xlink="http://www.w3.org/1999/xlink" viewBox="0 0 250 150"><defs><style>.cls-1{fill:url(#radial-gradient);}.cls-2{fill:url(#radial-gradient-2);}.cls-3,.cls-4{opacity:0.53;isolation:isolate;}.cls-3{fill:url(#radial-gradient-3);}.cls-4{fill:#ffd567;}.cls-5{fill:url(#radial-gradient-4);}.cls-6{fill:url(#radial-gradient-5);}.cls-7{fill:#ffff98;}.cls-8{fill:#bfbfc9;opacity:0.15;}.cls-9{fill:#9f9fad;}.cls-10{fill:#80808e;}.cls-11{fill:#592acb;}.cls-12{fill:#7542e5;}.cls-13{fill:#fff;}</style><radialGradient id="radial-gradient" cx="-3779.11" cy="417.18" r="0" gradientTransform="matrix(415.24, 0, 0, -416.17, 1569308.9, 173681.32)" gradientUnits="userSpaceOnUse"><stop offset="0" stop-color="#ff9640"/><stop offset="0.8" stop-color="#fc4055"/></radialGradient><radialGradient id="radial-gradient-2" cx="-3779.11" cy="417.18" r="0" gradientTransform="matrix(415.24, 0, 0, -416.17, 1569308.9, 173681.32)" gradientUnits="userSpaceOnUse"><stop offset="0.09" stop-color="#ffde67"/><stop offset="0.82" stop-color="#ff9640" stop-opacity="0"/></radialGradient><radialGradient id="radial-gradient-3" cx="-3778.67" cy="416.78" r="0.54" gradientTransform="matrix(415.24, 0, 0, -416.17, 1569308.9, 173681.32)" gradientUnits="userSpaceOnUse"><stop offset="0.36" stop-color="#fc4055"/><stop offset="0.59" stop-color="#ff9640" stop-opacity="0"/></radialGradient><radialGradient id="radial-gradient-4" cx="-3778.4" cy="417.16" r="1.11" xlink:href="#radial-gradient"/><radialGradient id="radial-gradient-5" cx="-3778.39" cy="417.09" r="1.13" xlink:href="#radial-gradient-2"/></defs><title>new-spot-illustrations-FINAL</title><path class="cls-1" d="M76,66.26,76,66.2l0,0Z"/><path class="cls-2" d="M76,66.26,76,66.2l0,0Z"/><path class="cls-3" d="M76,66.26,76,66.2l0,0Z"/><path class="cls-4" d="M76,66.26,76,66.2l0,0Z"/><path class="cls-5" d="M76.24,66c.91-.88,1.84-1.74,2.8-2.6C77.62,64.63,76.69,65.53,76.24,66Z"/><path class="cls-6" d="M76.24,66c.91-.88,1.84-1.74,2.8-2.6C77.62,64.63,76.69,65.53,76.24,66Z"/><path class="cls-3" d="M76.24,66c.91-.88,1.84-1.74,2.8-2.6C77.62,64.63,76.69,65.53,76.24,66Z"/><path class="cls-4" d="M76.24,66c.91-.88,1.84-1.74,2.8-2.6C77.62,64.63,76.69,65.53,76.24,66Z"/><path class="cls-7" d="M122.1,47.78l.74-.18-.3.07Z"/><path class="cls-7" d="M76.13,66.17l.26-.18-.16.1Z"/><circle class="cls-8" cx="128.78" cy="75" r="72"/><path class="cls-9" d="M172.51,50.17c-.06-4.45-.12-9.5-.13-15.2a4.89,4.89,0,0,0-4-4.79l-38.73-6.7a4.57,4.57,0,0,0-.83-.07,4.65,4.65,0,0,0-.83.07l-38.73,6.7a4.87,4.87,0,0,0-4,4.79c0,5.7-.08,10.75-.14,15.2-.1,8-.17,13.84.16,17.46,2.09,23.23,7,33.81,15.31,45.21a45.42,45.42,0,0,0,27.31,17.58,5.2,5.2,0,0,0,1,.09,5,5,0,0,0,1-.09A46,46,0,0,0,157,112.84c8.31-11.4,13.22-22,15.32-45.21C172.68,64,172.61,58.2,172.51,50.17Z"/><path class="cls-10" d="M128,23.56l-38.73,6.7a4.89,4.89,0,0,0-4,4.79c0,5.7-.07,10.75-.13,15.2-.1,8-.17,13.84.15,17.46,2.1,23.23,7,33.81,15.32,45.21a45.34,45.34,0,0,0,27.31,17.57,4.32,4.32,0,0,0,.95.1V23.49A4.57,4.57,0,0,0,128,23.56Z"/><path class="cls-11" d="M128.08,30.93,95.61,36.55a4.08,4.08,0,0,0-3.39,4c0,4.77-.06,9-.11,12.74C92,60.05,92,64.92,92.24,68c1.75,19.49,5.87,28.36,12.84,37.92A38,38,0,0,0,128,120.61a3.53,3.53,0,0,0,.79.08V30.87A4.23,4.23,0,0,0,128.08,30.93Z"/><path class="cls-12" d="M165.45,53.31c0-3.73-.1-8-.11-12.74a4.08,4.08,0,0,0-3.38-4l-32.48-5.62a4.14,4.14,0,0,0-.7-.06v89.82h0a3.62,3.62,0,0,0,.8-.08,38.54,38.54,0,0,0,22.89-14.74c7-9.56,11.09-18.43,12.85-37.92C165.6,64.92,165.54,60.05,165.45,53.31Z"/><path class="cls-13" d="M141.67,64.5a3.46,3.46,0,0,0-2.92-3.4l-10-1.65-10,1.65a3.46,3.46,0,0,0-2.93,3.4c0,2.71,0,6.3.18,8,.48,5.16,1.49,8,4,11.2a13.51,13.51,0,0,0,8.59,5l.17,0,.17,0a13.51,13.51,0,0,0,8.59-5c2.46-3.22,3.46-6,4-11.2C141.66,70.7,141.67,66.72,141.67,64.5Zm-3.38,7.68c-.44,4.59-1.21,6.82-3.3,9.55a10.39,10.39,0,0,1-6.21,3.74,10.37,10.37,0,0,1-6.2-3.74c-2.1-2.74-2.87-5-3.3-9.54-.12-1.22-.17-4-.17-7.68a.26.26,0,0,1,.23-.23l9.44-1.56,9.44,1.56a.25.25,0,0,1,.23.23C138.46,68.18,138.4,71,138.29,72.18Zm-15.95-5.13c0,3.17.1,4.41.14,4.83.42,4.35,1.12,5.89,2.65,7.89a7,7,0,0,0,3.65,2.39V66Z"/></svg>