<svg id="Layer_1" data-name="Layer 1" xmlns="http://www.w3.org/2000/svg" viewBox="0 0 250 150"><defs><style>.cls-1,.cls-7{fill:#bfbfc9;}.cls-1{opacity:0.15;}.cls-2{fill:#9f9fad;}.cls-3{fill:#0090ed;}.cls-4{fill:#00a2f1;}.cls-5{fill:#8f8f9d;}.cls-11,.cls-6{fill:none;stroke-linecap:round;stroke-linejoin:round;}.cls-6{stroke:#80808e;}.cls-8{fill:#faa257;}.cls-9{fill:#fabb6a;}.cls-10{fill:#dc7f48;}.cls-11{stroke:#9f9fad;}.cls-12{fill:#fff;}</style></defs><title>new-spot-illustrations-FINAL</title><circle class="cls-1" cx="130.38" cy="73.68" r="72"/><path class="cls-2" d="M165.55,92.92a5.24,5.24,0,0,0,1.22-3.34V25.82a5.33,5.33,0,0,0-5.31-5.31H71.13a5.33,5.33,0,0,0-5.32,5.31V89.58A5.24,5.24,0,0,0,67,92.92l-11.85,2v5.31H177.4V94.9Z"/><path class="cls-3" d="M126,31.13,71.13,86a1.77,1.77,0,0,0,1.77,1.77h86.79A1.77,1.77,0,0,0,161.46,86V31.13Z"/><polygon class="cls-4" points="71.13 31.13 71.13 86.04 126.03 31.13 71.13 31.13"/><path class="cls-3" d="M159.69,25.82H72.9a1.77,1.77,0,0,0-1.77,1.77v3.54h90.33V27.59A1.78,1.78,0,0,0,159.69,25.82Z"/><path class="cls-5" d="M159.85,94.22H73.06a.89.89,0,1,1,0-1.77h86.79a.89.89,0,0,1,0,1.77Z"/><line class="cls-6" x1="109.76" y1="96.53" x2="122.16" y2="96.53"/><path class="cls-7" d="M190.79,52.61H153.21A5.38,5.38,0,0,0,147.84,58v68a5.38,5.38,0,0,0,5.37,5.36h37.58a5.38,5.38,0,0,0,5.37-5.36V58A5.38,5.38,0,0,0,190.79,52.61Z"/><path class="cls-8" d="M153.21,100.92V122.4a1.8,1.8,0,0,0,1.79,1.79h34a1.79,1.79,0,0,0,1.79-1.79V63.34Z"/><polygon class="cls-9" points="153.21 63.34 153.21 100.92 190.79 63.34 153.21 63.34"/><path class="cls-8" d="M189,58H155a1.8,1.8,0,0,0-1.79,1.79v3.58h37.58V59.76A1.79,1.79,0,0,0,189,58Z"/><circle class="cls-10" cx="163.05" cy="116.13" r="2.68"/><circle class="cls-10" cx="172" cy="116.13" r="2.68"/><circle class="cls-10" cx="180.95" cy="116.13" r="2.68"/><line class="cls-11" x1="169.64" y1="127.77" x2="174.69" y2="127.77"/><path class="cls-12" d="M116.25,55.37v5.3h7.87a6.92,6.92,0,0,1-2.92,4.64h0a8.48,8.48,0,0,1-5,1.43,8.62,8.62,0,0,1-8.14-5.94h0a8.84,8.84,0,0,1-.47-2.83,9.11,9.11,0,0,1,.46-2.82h0a8.64,8.64,0,0,1,8.15-5.94h0a8,8,0,0,1,5.52,2.12l4-3.94a13.74,13.74,0,0,0-9.56-3.71,14.3,14.3,0,0,0-12.78,20.71h0a14.3,14.3,0,0,0,12.78,7.88,13.6,13.6,0,0,0,9.46-3.46h0A14,14,0,0,0,130,58.29a12.61,12.61,0,0,0-.3-2.92Z"/><path class="cls-12" d="M172.2,86v3.73h5.54A4.89,4.89,0,0,1,175.69,93h0a6,6,0,0,1-3.49,1,6,6,0,0,1-5.71-4.18h0a5.94,5.94,0,0,1-.34-2,6.47,6.47,0,0,1,.32-2h0a6.07,6.07,0,0,1,5.73-4.18h0a5.55,5.55,0,0,1,3.89,1.5l2.83-2.77a9.64,9.64,0,0,0-6.72-2.62,10,10,0,0,0-9,14.56h0a10,10,0,0,0,9,5.54,9.59,9.59,0,0,0,6.66-2.43h0a9.82,9.82,0,0,0,3-7.39,9,9,0,0,0-.21-2.06Z"/></svg>