<?xml version="1.0" encoding="utf-8"?>
<svg id="Layer_1" data-name="Layer 1" viewBox="0 0 64 64" xmlns="http://www.w3.org/2000/svg">
  <defs>
    <style>.cls-1{fill:#ab71ff;}.cls-2{fill:#7542e5;}.cls-3{fill:#592acb;}.cls-4{fill:#9158ff;}</style>
  </defs>
  <title>new-icons</title>
  <path class="cls-1" d="M 64.006 31.202 C 64.019 30.397 63.443 29.702 62.65 29.566 C 59.475 29.01 50.577 26.9 47.568 23.891 C 44.558 20.88 42.465 11.948 41.891 8.775 C 41.754 7.983 41.061 7.406 40.256 7.418 L 40.256 31.202 Z" style=""/>
  <path class="cls-2" d="M 40.358 7.418 L 40.358 7.418 C 39.544 7.408 38.848 7.993 38.719 8.794 C 38.195 11.971 36.214 20.881 33.217 23.878 C 30.218 26.875 21.243 28.988 17.968 29.594 C 17.174 29.731 16.596 30.426 16.608 31.232 L 40.358 31.232 Z" style=""/>
  <path class="cls-2" d="M 40.289 31.163 L 40.289 54.881 C 41.093 54.893 41.786 54.318 41.924 53.523 C 42.481 50.252 44.608 41.289 47.6 38.278 C 50.594 35.269 59.492 33.29 62.666 32.782 C 63.466 32.652 64.05 31.956 64.039 31.146 L 40.289 31.146 Z" style=""/>
  <path class="cls-3" d="M 16.608 31.163 L 16.608 31.163 C 16.596 31.969 17.174 32.664 17.968 32.801 C 21.243 33.309 30.202 35.307 33.217 38.304 C 36.23 41.301 38.129 50.326 38.719 53.551 C 38.848 54.352 39.544 54.938 40.358 54.928 L 40.358 54.928 L 40.358 31.163 Z" style=""/>
  <path class="cls-1" d="M 27.762 13.2 C 27.761 12.871 27.527 12.591 27.208 12.53 C 25.885 12.3 22.21 11.435 20.968 10.194 C 19.727 8.953 18.862 5.295 18.634 3.956 C 18.571 3.634 18.29 3.403 17.964 3.4 L 17.964 13.2 Z" style=""/>
  <path class="cls-4" d="M 18.015 3.4 L 18.015 3.4 C 17.681 3.404 17.397 3.645 17.342 3.975 C 17.128 5.288 16.307 8.898 15.06 10.229 C 13.812 11.559 10.136 12.346 8.724 12.578 C 8.401 12.639 8.167 12.92 8.165 13.251 L 18.015 13.251 Z" style=""/>
  <path class="cls-2" d="M 17.9 13.2 L 17.9 23.049 C 18.228 23.048 18.51 22.814 18.574 22.491 C 18.803 21.146 19.672 17.401 20.92 16.155 C 22.169 14.906 25.846 14.085 27.176 13.872 C 27.505 13.816 27.748 13.534 27.75 13.2 L 17.9 13.2 Z" style=""/>
  <path class="cls-3" d="M 8.165 13.2 L 8.165 13.2 C 8.162 13.536 8.407 13.822 8.74 13.871 C 10.07 14.085 13.812 14.906 15.06 16.154 C 16.307 17.401 17.128 21.079 17.341 22.473 C 17.391 22.807 17.678 23.052 18.015 23.048 L 18.015 23.048 L 18.015 13.2 Z" style=""/>
  <path class="cls-1" d="M 26.066 50.761 C 26.07 50.32 25.75 49.944 25.314 49.879 C 23.567 49.568 18.667 48.409 17.018 46.743 C 15.369 45.077 14.193 40.209 13.882 38.447 C 13.817 38.011 13.441 37.69 13 37.695 L 13 50.761 Z" style=""/>
  <path class="cls-2" d="M 13.064 37.695 L 13.064 37.695 C 12.627 37.698 12.254 38.014 12.184 38.447 C 11.888 40.194 10.795 45.093 9.145 46.743 C 7.496 48.392 2.515 49.568 0.752 49.879 C 0.316 49.944 -0.005 50.32 0 50.761 L 13.064 50.761 Z" style=""/>
  <path class="cls-2" d="M 13 50.7 L 13 63.764 C 13.441 63.768 13.817 63.448 13.882 63.012 C 14.193 61.248 15.369 56.268 17.018 54.618 C 18.667 52.969 23.551 51.876 25.314 51.58 C 25.747 51.509 26.063 51.137 26.066 50.7 L 13 50.7 Z" style=""/>
  <path class="cls-3" d="M 0 50.7 L 0 50.7 C 0.003 51.137 0.319 51.509 0.752 51.58 C 2.531 51.876 7.496 52.969 9.145 54.618 C 10.795 56.268 11.888 61.232 12.184 63.012 C 12.254 63.445 12.627 63.761 13.064 63.764 L 13.064 63.764 L 13.064 50.7 Z" style=""/>
</svg>