<?xml version="1.0" encoding="utf-8"?>
<svg id="Layer_1" data-name="Layer 1" viewBox="0 0 64 64" xmlns="http://www.w3.org/2000/svg">
  <defs>
    <style>.cls-1{fill:#ab71ff;}.cls-2{fill:#d7bbff;}.cls-3{fill:#7641e5;}</style>
  </defs>
  <title>new-icons</title>
  <polygon class="cls-1" points="0.082 59.321 50.384 59.321 50.336 29.079 0.049 29.079 0.082 59.321" style=""/>
  <path class="cls-2" d="M 34.944 44.318 C 34.944 51.963 26.669 56.74 20.048 52.918 C 13.428 49.097 13.428 39.54 20.048 35.718 C 21.558 34.846 23.27 34.387 25.013 34.387 C 30.501 34.379 34.953 38.829 34.944 44.318 Z" style=""/>
  <rect class="cls-3" x="6.488" y="19.936" width="8.287" height="6.682" style=""/>
  <path class="cls-3" d="M 26.557 44.741 C 29.014 43.528 29.236 40.109 26.957 38.588 C 24.677 37.068 21.606 38.585 21.429 41.319 C 21.336 42.754 22.116 44.104 23.404 44.741 L 21.779 48.366 C 21.568 48.837 21.911 49.372 22.429 49.373 L 27.63 49.373 C 28.148 49.372 28.491 48.837 28.28 48.366 Z" style=""/>
  <rect class="cls-3" x="35.562" y="19.682" width="8.322" height="6.936" style=""/>
  <path class="cls-3" d="M 0.082 62.375 C 0.082 63.273 0.81 64 1.706 64 L 48.841 64 C 49.706 63.957 50.386 63.242 50.384 62.375 L 50.384 59.124 L 0.082 59.124 Z" style=""/>
  <path class="cls-3" d="M 50.348 26.618 C 50.35 25.752 49.67 25.037 48.806 24.994 L 1.624 24.994 C 0.728 24.994 0 25.721 0 26.618 L 0 29.869 L 50.348 29.869 Z" style=""/>
  <path class="cls-3" d="M 43.883 17.646 C 43.034 3.258 26.927 -4.815 14.892 3.114 C 9.958 6.365 6.849 11.751 6.501 17.646 L 6.501 20.117 L 14.773 20.117 L 14.773 17.646 C 15.09 9.645 23.949 4.988 30.721 9.262 C 33.617 11.09 35.426 14.225 35.562 17.646 L 35.562 20.117 L 43.883 20.117 Z" style=""/>
</svg>