<?xml version="1.0" encoding="utf-8"?>
<svg id="Layer_1" data-name="Layer 1" viewBox="0 0 64 64" xmlns="http://www.w3.org/2000/svg">
  <defs>
    <style>.cls-1{fill:#7542e5;}.cls-2{fill:#d9bfff;}.cls-3{clip-path:url(#clip-path);}.cls-4{fill:#5a2ac9;}.cls-5{clip-path:url(#clip-path-2);}</style>
    <clipPath id="clip-path">
      <path class="cls-1" d="M39.92,46.61H6.49A5.73,5.73,0,0,0,.77,52.33v5.18a5.73,5.73,0,0,0,5.72,5.72H39.92a5.74,5.74,0,0,0,5.72-5.72V52.33A5.74,5.74,0,0,0,39.92,46.61Z"/>
    </clipPath>
    <clipPath id="clip-path-2">
      <path class="cls-2" d="M36.84,55.67a.32.32,0,0,1,.15.46l-.7,1.2a.31.31,0,0,1-.22.15.35.35,0,0,1-.26-.06l-1.45-1.17.24,1.94a.37.37,0,0,1-.08.26.28.28,0,0,1-.24.1H32.89a.3.3,0,0,1-.24-.11.33.33,0,0,1-.08-.25l.24-1.95-1.59,1.18a.28.28,0,0,1-.25.06.3.3,0,0,1-.22-.16l-.67-1.2a.3.3,0,0,1,0-.26.32.32,0,0,1,.17-.19l1.81-.75-1.81-.8a.25.25,0,0,1-.17-.19.32.32,0,0,1,0-.27l.69-1.17a.27.27,0,0,1,.21-.15.34.34,0,0,1,.26,0l1.59,1.18-.24-1.93a.33.33,0,0,1,.08-.25.32.32,0,0,1,.24-.11h1.38a.31.31,0,0,1,.32.36l-.25,2L36,52.44a.3.3,0,0,1,.26-.06.32.32,0,0,1,.21.15l.68,1.2a.32.32,0,0,1,0,.27.35.35,0,0,1-.19.19l-1.8.79Zm-10.32,0a.28.28,0,0,1,.18.2.3.3,0,0,1,0,.26L26,57.33a.31.31,0,0,1-.22.15.32.32,0,0,1-.25-.06L24,56.25l.25,1.94a.38.38,0,0,1-.08.25.33.33,0,0,1-.25.11H22.53a.32.32,0,0,1-.24-.11.33.33,0,0,1-.08-.25l.24-1.95-1.59,1.18a.3.3,0,0,1-.26.06.29.29,0,0,1-.21-.16l-.68-1.2a.3.3,0,0,1,0-.26.31.31,0,0,1,.18-.19l1.81-.75-1.81-.8a.29.29,0,0,1-.18-.19.32.32,0,0,1,0-.27l.69-1.17a.31.31,0,0,1,.22-.15.34.34,0,0,1,.26,0l1.56,1.22-.24-1.93a.34.34,0,0,1,.08-.26.32.32,0,0,1,.24-.11H23.9a.33.33,0,0,1,.25.11.34.34,0,0,1,.08.26L24,53.61l1.59-1.17a.28.28,0,0,1,.25-.06.29.29,0,0,1,.22.15l.67,1.2a.32.32,0,0,1,0,.27.33.33,0,0,1-.18.19l-1.8.79Zm-10.33,0a.37.37,0,0,1,.18.46l-.71,1.2a.27.27,0,0,1-.21.15.34.34,0,0,1-.26-.06l-1.52-1.17.24,1.94a.33.33,0,0,1-.08.25.3.3,0,0,1-.24.11H12.17a.32.32,0,0,1-.24-.11.29.29,0,0,1-.07-.25l.24-1.95-1.59,1.18a.3.3,0,0,1-.26.06.31.31,0,0,1-.21-.16l-.68-1.2a.39.39,0,0,1,0-.26.31.31,0,0,1,.18-.19l1.81-.75-1.81-.8a.29.29,0,0,1-.18-.19.32.32,0,0,1,0-.27l.69-1.17a.34.34,0,0,1,.47-.1l1.6,1.22-.25-1.93a.34.34,0,0,1,.08-.26.32.32,0,0,1,.24-.11h1.39a.32.32,0,0,1,.24.11.34.34,0,0,1,.08.26l-.27,1.93,1.59-1.17a.32.32,0,0,1,.27-.06.39.39,0,0,1,.21.15l.67,1.2a.32.32,0,0,1,0,.27.33.33,0,0,1-.18.19L14.38,55Z"/>
    </clipPath>
  </defs>
  <title>new-icons</title>
  <path class="cls-1" d="M 55.062 20.902 L 8.952 20.902 C 4.598 20.91 1.07 24.438 1.062 28.792 L 1.062 35.937 C 1.07 40.291 4.598 43.819 8.952 43.826 L 55.062 43.826 C 59.413 43.811 62.937 40.288 62.952 35.937 L 62.952 28.792 C 62.937 24.441 59.413 20.917 55.062 20.902 Z"/>
  <g class="cls-3" transform="matrix(1.37931, 0, 0, 1.37931, 0, -43.387585)">
    <rect class="cls-1" x="-1.84" y="44" width="50.09" height="21.84"/>
  </g>
  <path class="cls-4" d="M 55.062 20.902 L 55.062 19.84 L 8.938 19.84 C 4.006 19.863 0.015 23.859 0 28.792 L 0 28.792 L 0 35.937 L 0 35.937 C 0.008 40.872 4.003 44.873 8.938 44.888 L 55.062 44.888 C 59.992 44.873 63.985 40.88 64 35.95 L 64 35.95 L 64 28.792 L 64 28.792 C 63.992 23.856 59.997 19.855 55.062 19.84 L 55.062 19.84 L 55.062 21.964 C 58.844 21.964 61.921 25.01 61.959 28.792 L 61.959 28.792 L 61.959 35.937 L 61.959 35.937 C 61.959 39.745 58.871 42.833 55.062 42.833 L 8.952 42.833 C 5.17 42.795 2.124 39.719 2.124 35.937 L 2.124 35.937 L 2.124 28.792 L 2.124 28.792 C 2.162 25.01 5.239 21.964 9.021 21.964 L 55.048 21.964 Z"/>
  <path class="cls-2" d="M 50.814 33.399 C 51.062 33.503 51.159 33.803 51.021 34.033 L 50.055 35.688 C 49.99 35.799 49.879 35.875 49.752 35.895 C 49.626 35.916 49.497 35.886 49.393 35.812 L 47.393 34.199 L 47.724 36.874 C 47.734 37.004 47.695 37.132 47.614 37.233 C 47.533 37.331 47.409 37.382 47.283 37.371 L 45.366 37.371 C 45.238 37.374 45.115 37.318 45.034 37.219 C 44.952 37.125 44.912 37 44.924 36.874 L 45.255 34.185 L 43.062 35.812 C 42.967 35.894 42.839 35.925 42.717 35.895 C 42.587 35.874 42.474 35.792 42.414 35.674 L 41.49 34.019 C 41.435 33.906 41.435 33.774 41.49 33.661 C 41.528 33.545 41.613 33.45 41.724 33.399 L 44.221 32.364 L 41.724 31.261 C 41.604 31.223 41.514 31.122 41.49 30.999 C 41.435 30.881 41.435 30.744 41.49 30.626 L 42.441 29.012 C 42.497 28.899 42.606 28.821 42.731 28.806 C 42.846 28.758 42.975 28.758 43.09 28.806 L 45.283 30.433 L 44.952 27.771 C 44.939 27.646 44.979 27.521 45.062 27.426 C 45.145 27.33 45.266 27.275 45.393 27.274 L 47.297 27.274 C 47.568 27.262 47.782 27.503 47.738 27.771 L 47.393 30.53 L 49.655 28.943 C 49.755 28.861 49.888 28.831 50.014 28.861 C 50.135 28.886 50.24 28.961 50.303 29.068 L 51.241 30.723 C 51.296 30.841 51.296 30.977 51.241 31.095 C 51.192 31.214 51.098 31.308 50.979 31.357 L 48.497 32.447 Z M 36.579 33.399 C 36.704 33.442 36.797 33.546 36.828 33.674 C 36.882 33.788 36.882 33.92 36.828 34.033 L 35.862 35.688 C 35.797 35.799 35.686 35.875 35.559 35.895 C 35.437 35.917 35.312 35.887 35.214 35.812 L 33.103 34.199 L 33.448 36.874 C 33.454 36.999 33.415 37.121 33.338 37.219 C 33.25 37.317 33.125 37.373 32.993 37.371 L 31.076 37.371 C 30.949 37.37 30.828 37.315 30.745 37.219 C 30.662 37.125 30.622 37 30.634 36.874 L 30.966 34.185 L 28.772 35.812 C 28.672 35.895 28.54 35.925 28.414 35.895 C 28.287 35.872 28.18 35.79 28.124 35.674 L 27.186 34.019 C 27.132 33.906 27.132 33.774 27.186 33.661 C 27.226 33.541 27.317 33.445 27.434 33.399 L 29.931 32.364 L 27.434 31.261 C 27.315 31.218 27.223 31.12 27.186 30.999 C 27.131 30.881 27.131 30.744 27.186 30.626 L 28.138 29.012 C 28.203 28.901 28.314 28.825 28.441 28.806 C 28.556 28.758 28.685 28.758 28.8 28.806 L 30.952 30.488 L 30.621 27.826 C 30.606 27.697 30.646 27.567 30.731 27.468 C 30.814 27.372 30.935 27.316 31.062 27.316 L 32.966 27.316 C 33.097 27.314 33.223 27.37 33.31 27.468 C 33.395 27.567 33.435 27.697 33.421 27.826 L 33.103 30.557 L 35.297 28.943 C 35.391 28.862 35.52 28.831 35.641 28.861 C 35.77 28.876 35.883 28.954 35.945 29.068 L 36.869 30.723 C 36.924 30.841 36.924 30.977 36.869 31.095 C 36.826 31.213 36.736 31.308 36.621 31.357 L 34.138 32.447 Z M 22.331 33.399 C 22.564 33.516 22.671 33.789 22.579 34.033 L 21.6 35.688 C 21.545 35.802 21.436 35.88 21.31 35.895 C 21.185 35.918 21.055 35.888 20.952 35.812 L 18.855 34.199 L 19.186 36.874 C 19.199 37 19.159 37.125 19.076 37.219 C 18.995 37.318 18.873 37.374 18.745 37.371 L 16.786 37.371 C 16.659 37.37 16.539 37.315 16.455 37.219 C 16.37 37.126 16.335 36.998 16.359 36.874 L 16.69 34.185 L 14.497 35.812 C 14.397 35.895 14.264 35.925 14.138 35.895 C 14.013 35.868 13.907 35.788 13.848 35.674 L 12.91 34.019 C 12.869 33.903 12.869 33.777 12.91 33.661 C 12.95 33.541 13.041 33.445 13.159 33.399 L 15.655 32.364 L 13.159 31.261 C 13.039 31.218 12.947 31.12 12.91 30.999 C 12.855 30.881 12.855 30.744 12.91 30.626 L 13.862 29.012 C 14.003 28.795 14.293 28.734 14.51 28.874 L 16.717 30.557 L 16.372 27.895 C 16.358 27.765 16.398 27.636 16.483 27.537 C 16.566 27.441 16.687 27.385 16.814 27.385 L 18.731 27.385 C 18.858 27.385 18.979 27.441 19.062 27.537 C 19.147 27.636 19.187 27.765 19.172 27.895 L 18.8 30.557 L 20.993 28.943 C 21.098 28.861 21.235 28.83 21.366 28.861 C 21.483 28.895 21.585 28.968 21.655 29.068 L 22.579 30.723 C 22.634 30.841 22.634 30.977 22.579 31.095 C 22.536 31.213 22.446 31.308 22.331 31.357 L 19.834 32.474 Z"/>
  <g class="cls-5" transform="matrix(1.37931, 0, 0, 1.37931, 0, -43.387585)">
    <rect class="cls-2" x="6.72" y="48.67" width="33.02" height="12.5"/>
  </g>
</svg>