<?xml version="1.0" encoding="utf-8"?>
<svg id="Layer_1" data-name="Layer 1" viewBox="0 0 64 64" xmlns="http://www.w3.org/2000/svg">
  <defs>
    <style>.cls-1{fill:#7542e5;}.cls-2{fill:#d9bfff;}</style>
  </defs>
  <title>new-icons</title>
  <path class="cls-1" d="M 25.997 23.931 C 24.895 23.922 23.998 24.812 23.998 25.914 L 23.998 29.097 L 15.412 20.511 C 14.621 19.737 13.356 19.737 12.567 20.511 C 11.784 21.291 11.784 22.559 12.567 23.339 L 21.169 31.926 L 17.986 31.926 C 16.447 31.926 15.487 33.592 16.255 34.924 C 16.613 35.542 17.272 35.923 17.986 35.923 L 25.997 35.923 L 26.759 35.77 C 27.25 35.567 27.64 35.178 27.842 34.687 L 27.995 33.925 L 27.995 25.914 C 27.995 24.812 27.097 23.922 25.997 23.931 M 51.993 7.928 L 11.99 7.928 C 5.375 7.928 0.009 13.287 0 19.901 L 0 51.91 C -0.009 58.542 5.36 63.925 11.99 63.934 L 20.002 63.934 C 23.084 63.734 24.795 60.271 23.079 57.701 C 22.385 56.662 21.247 56.005 20.002 55.924 L 11.99 55.924 C 9.784 55.924 7.994 54.135 7.994 51.926 L 7.994 19.901 C 7.994 17.695 9.784 15.905 11.99 15.905 L 51.993 15.905 C 54.203 15.905 55.996 17.691 56.006 19.901 L 56.006 27.913 C 56.006 30.989 59.336 32.912 62.001 31.373 C 63.238 30.659 64 29.34 64 27.913 L 64 19.901 C 64 13.273 58.621 7.901 51.993 7.911" style=""/>
  <path class="cls-2" d="M 64 43.917 L 64 59.92 C 64.009 62.135 62.218 63.934 60.003 63.934 L 35.989 63.934 C 33.778 63.925 31.991 62.13 31.991 59.92 L 31.991 43.917 C 32.001 41.715 33.787 39.936 35.989 39.936 L 60.003 39.936 C 62.209 39.926 64 41.712 64 43.917" style=""/>
</svg>