<?xml version="1.0" encoding="utf-8"?>
<svg id="Layer_1" data-name="Layer 1" viewBox="0 0 64 64" xmlns="http://www.w3.org/2000/svg">
  <defs>
    <style>.cls-1{fill:#9059ff;}.cls-2{fill:#c689ff;}.cls-3{fill:#7641e5;}</style>
  </defs>
  <title>new-icons</title>
  <path class="cls-1" d="M 50.944 15.163 C 40.577 15.163 37.328 19.291 32.4 19.499 L 40.769 43.195 C 43.537 45.195 46.4 47.163 49.601 47.163 C 57.808 47.163 63.872 39.387 64 26.075 C 64 17.802 61.585 15.163 50.944 15.163 Z M 49.104 34.075 C 44.913 34.075 39.969 32.475 39.969 31.162 C 39.969 29.851 42.353 25.083 48.464 25.339 C 54.864 25.627 57.6 29.483 57.6 30.443 C 57.6 31.403 53.313 34.075 49.104 34.075 Z" style=""/>
  <path class="cls-2" d="M 32 19.531 L 32 39.163 C 35.2 39.163 37.968 41.195 40.769 43.195 L 32.4 19.499 Z" style=""/>
  <path class="cls-3" d="M 13.057 15.163 C 2.416 15.163 0 17.802 0 26.075 C 0.096 39.387 6.16 47.163 14.4 47.163 C 17.6 47.163 20.432 45.099 23.312 43.067 L 31.632 19.499 C 26.672 19.291 23.44 15.163 13.057 15.163 Z M 14.896 34.075 C 10.688 34.075 6.4 31.387 6.4 30.443 C 6.4 29.499 9.072 25.642 15.536 25.339 C 21.648 25.083 24 29.563 24 31.162 C 24 32.763 19.088 34.075 14.896 34.075 Z" style=""/>
  <path class="cls-1" d="M 32 19.531 L 31.6 19.531 L 23.281 43.099 C 26.064 41.099 28.801 39.163 32 39.163 Z" style=""/>
</svg>