<?xml version="1.0" encoding="UTF-8"?>
<svg width="287px" height="212px" viewBox="0 0 287 212" version="1.1" xmlns="http://www.w3.org/2000/svg" xmlns:xlink="http://www.w3.org/1999/xlink">
    <!-- Generator: Sketch 59.1 (86144) - https://sketch.com -->
    <title>noodles</title>
    <desc>Created with Sketch.</desc>
    <g id="/firefox/new/redesign" stroke="none" stroke-width="1" fill="none" fill-rule="evenodd">
        <g id="/new-1312-v3" transform="translate(-54.000000, -723.000000)">
            <g id="section-whats-new" transform="translate(55.000000, 720.000000)">
                <g id="noodles" transform="translate(0.000000, 0.964032)">
                    <rect id="Rectangle-Copy-25" stroke="#7542E5" transform="translate(201.500000, 50.000000) rotate(49.000000) translate(-201.500000, -50.000000) " x="162" y="33" width="79" height="34" rx="17"></rect>
                    <circle id="Oval" stroke="#FF9640" cx="81.5" cy="131.5" r="81.5"></circle>
                    <path d="M270.783811,4.56001493 C272.605526,5.60018451 273.263977,7.89950674 272.2763,9.74991368 L272.221429,9.85940521 C271.27765,11.6331681 271.925126,13.8339479 273.69197,14.8084226 C275.458813,15.7828973 277.675598,15.1697447 278.674249,13.4288293 L278.740094,13.3193377 C279.793615,11.4908291 282.131116,10.8338799 283.996727,11.8631003 C285.873312,12.9032699 286.553712,15.268287 285.511164,17.1405923 C282.438393,22.6699148 275.458813,24.6626607 269.927825,21.5968978 C264.374889,18.5311348 262.366613,11.5674732 265.439385,6.03815065 C266.470958,4.17679456 268.797484,3.49794704 270.67407,4.49432001 L270.72894,4.52716747 L270.783811,4.56001493 Z" id="Fill-1-Copy-2" fill="#F80089" transform="translate(275.000000, 13.535968) rotate(19.000000) translate(-275.000000, -13.535968) "></path>
                </g>
            </g>
        </g>
    </g>
</svg>