<svg id="Layer_1" data-name="Layer 1" xmlns="http://www.w3.org/2000/svg" viewBox="0 0 250 150"><defs><style>.cls-1{fill:#efeff4;}.cls-2,.cls-3,.cls-4{fill:none;stroke:#d0d0d8;stroke-linecap:round;stroke-linejoin:round;stroke-width:2px;}.cls-3{stroke-dasharray:2.94 4.9;}.cls-4{stroke-dasharray:2.88 4.8;}.cls-5{fill:#faa257;}.cls-6{fill:#80808e;}.cls-7{fill:#9f9fad;}.cls-8{fill:#d5d5db;}.cls-9{fill:#fff;}</style></defs><title>new-spot-illustrations-FINAL</title><rect class="cls-1" x="53.94" y="19.97" width="142.12" height="108.5" rx="1.63"/><polyline class="cls-2" points="187.74 118.76 187.74 120.26 186.24 120.26"/><line class="cls-3" x1="181.34" y1="120.26" x2="66.21" y2="120.26"/><polyline class="cls-2" points="63.76 120.26 62.26 120.26 62.26 118.76"/><line class="cls-4" x1="62.26" y1="113.97" x2="62.26" y2="54.96"/><polyline class="cls-2" points="62.26 52.56 62.26 51.06 63.76 51.06"/><line class="cls-3" x1="68.66" y1="51.07" x2="183.79" y2="51.07"/><polyline class="cls-2" points="186.24 51.06 187.74 51.06 187.74 52.56"/><line class="cls-4" x1="187.74" y1="57.36" x2="187.74" y2="116.36"/><rect class="cls-5" x="68.28" y="56.27" width="113.45" height="58.78"/><path class="cls-6" d="M196.06,30.76V21.41A1.43,1.43,0,0,0,194.62,20H55.38a1.43,1.43,0,0,0-1.44,1.44v9.35Z"/><rect class="cls-7" x="53.94" y="28.67" width="142.12" height="15.56"/><rect class="cls-8" x="78.76" y="33.45" width="111.88" height="5.98"/><rect class="cls-7" x="67.29" y="22.36" width="22.93" height="11.09"/><circle class="cls-9" cx="103.74" cy="76.84" r="11.17"/><polygon class="cls-9" points="101.81 105.47 114.92 92.36 120.19 97.63 134.8 83.02 157.43 105.66 101.81 105.47"/></svg>