<?xml version="1.0" encoding="utf-8"?>
<svg id="Layer_1" data-name="Layer 1" viewBox="0 0 64 64" xmlns="http://www.w3.org/2000/svg">
  <defs>
    <style>.cls-1{fill:#7542e5;}</style>
  </defs>
  <title>new-icons</title>
  <path class="cls-1" d="M 61.389 55.503 L 61.202 55.314 L 43.744 37.97 C 54.444 22.849 44.762 1.814 26.318 0.108 C 7.871 -1.598 -5.504 17.303 2.241 34.131 C 8.205 47.089 24.069 52.045 36.348 44.783 L 54.012 62.428 C 56.678 65.239 61.387 64.11 62.487 60.395 C 62.998 58.671 62.551 56.806 61.314 55.503 Z M 39.596 24.08 C 39.607 32.646 32.675 39.602 24.111 39.622 L 24.111 39.622 C 11.959 39.839 4.131 26.82 10.019 16.19 C 15.907 5.559 31.096 5.288 37.357 15.703 C 38.805 18.111 39.584 20.86 39.615 23.668 L 39.615 24.08 Z" style=""/>
</svg>