<svg id="Layer_1" data-name="Layer 1" xmlns="http://www.w3.org/2000/svg" viewBox="0 0 250 150"><defs><style>.cls-1,.cls-13{fill:#bfbfc9;}.cls-1{opacity:0.15;}.cls-2{fill:#e0e0e6;}.cls-3{fill:#0090ed;}.cls-4{fill:#00a2f1;}.cls-5{fill:#ffd567;}.cls-6{fill:#1a59b2;}.cls-12,.cls-17,.cls-7{fill:none;stroke-linecap:round;stroke-linejoin:round;}.cls-7{stroke:#5b5b66;}.cls-8{fill:#9f9fad;}.cls-9{fill:#592acb;}.cls-10{fill:#6736d8;}.cls-11{fill:#8f8f9d;}.cls-12{stroke:#80808e;}.cls-14{fill:#fa7050;}.cls-15{fill:#f98a61;}.cls-16{fill:#dc5c3b;}.cls-17{stroke:#9f9fad;}.cls-18{fill:#fff;}</style></defs><title>new-spot-illustrations-FINAL</title><circle class="cls-1" cx="123.85" cy="74.94" r="72"/><rect class="cls-2" x="150.11" y="8.17" width="66.9" height="86.79" rx="3"/><path class="cls-3" d="M155.54,75.07V85.92a1.81,1.81,0,0,0,1.8,1.81h52.44a1.81,1.81,0,0,0,1.81-1.81V19Z"/><polygon class="cls-4" points="155.54 19.02 155.54 55.18 155.54 73.26 155.54 75.07 211.59 19.02 155.54 19.02"/><path class="cls-3" d="M209.78,13.59H157.34a1.81,1.81,0,0,0-1.8,1.81V19h56.05V15.4A1.82,1.82,0,0,0,209.78,13.59Z"/><circle class="cls-5" cx="167.29" cy="79.59" r="2.71"/><circle class="cls-6" cx="178.14" cy="79.59" r="2.71"/><circle class="cls-6" cx="188.99" cy="79.59" r="2.71"/><circle class="cls-6" cx="199.84" cy="79.59" r="2.71"/><line class="cls-7" x1="180.85" y1="91.35" x2="185.95" y2="91.35"/><path class="cls-8" d="M141.27,102.87a5.26,5.26,0,0,0,1.22-3.34V35.77a5.33,5.33,0,0,0-5.31-5.32H46.84a5.33,5.33,0,0,0-5.31,5.32V99.53a5.26,5.26,0,0,0,1.22,3.34l-11.85,2v5.32H153.12v-5.32Z"/><path class="cls-9" d="M101.75,41.08,46.84,96a1.78,1.78,0,0,0,1.77,1.77H135.4A1.78,1.78,0,0,0,137.18,96V41.08Z"/><polygon class="cls-10" points="46.84 41.08 46.84 95.99 101.75 41.08 46.84 41.08"/><path class="cls-9" d="M135.4,35.77H48.61a1.77,1.77,0,0,0-1.77,1.77v3.54h90.34V37.54A1.78,1.78,0,0,0,135.4,35.77Z"/><path class="cls-11" d="M135.57,104.16H48.78a.89.89,0,1,1,0-1.77h86.79a.89.89,0,0,1,0,1.77Z"/><line class="cls-12" x1="85.48" y1="106.47" x2="97.88" y2="106.47"/><path class="cls-13" d="M166.36,63.48H128.78a5.39,5.39,0,0,0-5.37,5.37v68a5.38,5.38,0,0,0,5.37,5.37h37.58a5.38,5.38,0,0,0,5.37-5.37v-68A5.39,5.39,0,0,0,166.36,63.48Z"/><path class="cls-14" d="M128.78,111.8v21.48a1.79,1.79,0,0,0,1.79,1.78h34a1.79,1.79,0,0,0,1.79-1.78V74.22Z"/><polygon class="cls-15" points="128.78 74.22 128.78 111.8 166.36 74.22 128.78 74.22"/><path class="cls-14" d="M164.57,68.85h-34a1.8,1.8,0,0,0-1.79,1.79v3.58h37.58V70.64A1.79,1.79,0,0,0,164.57,68.85Z"/><circle class="cls-16" cx="138.62" cy="127.01" r="2.68"/><circle class="cls-16" cx="147.57" cy="127.01" r="2.68"/><circle class="cls-16" cx="156.52" cy="127.01" r="2.68"/><line class="cls-17" x1="145.21" y1="138.64" x2="150.26" y2="138.64"/><path class="cls-18" d="M191,47.8a1.22,1.22,0,0,0-.54,0,1.17,1.17,0,0,0-1.07.88,5.93,5.93,0,0,1-5.75,4.51h0l-.78-.06a5.87,5.87,0,0,1-3.92-2.32h2.34a1.19,1.19,0,0,0,0-2.38h-4.75a1.19,1.19,0,0,0-1.19,1.19v4.76h0a1.19,1.19,0,1,0,2.38,0V53.33a8.68,8.68,0,0,0,4.86,2.19,7.59,7.59,0,0,0,1.07.08h0a8.24,8.24,0,0,0,8.31-6.42A1.19,1.19,0,0,0,191,47.8Z"/><path class="cls-18" d="M192,40.14h0a1.19,1.19,0,0,0-2.38,0v1.09A8.84,8.84,0,0,0,184.71,39a7.88,7.88,0,0,0-1.09-.08h-.12a8.2,8.2,0,0,0-8.18,6.4,1.19,1.19,0,0,0,1,1.39.82.82,0,0,0,.44,0h0a1.18,1.18,0,0,0,1.15-.9,5.94,5.94,0,0,1,5.69-4.5h.06a7.36,7.36,0,0,1,.81.06,5.89,5.89,0,0,1,3.91,2.32H186a1.19,1.19,0,1,0,0,2.38h4.76A1.19,1.19,0,0,0,192,44.9V40.14Z"/><path class="cls-18" d="M103.08,69.41a2.45,2.45,0,0,0-2.47,1.42,9.14,9.14,0,0,1-8.86,6.94h0a9.55,9.55,0,0,1-1.2-.09,9,9,0,0,1-6-3.57h3.61a1.83,1.83,0,0,0,0-3.66H80.76a1.83,1.83,0,0,0-1.83,1.83v7.33h0a1.83,1.83,0,0,0,3.66,0V77.93a13.44,13.44,0,0,0,7.49,3.38,11.35,11.35,0,0,0,1.65.13h0c6.35,0,11.73-4.16,12.8-9.89A1.84,1.84,0,0,0,103.08,69.41Z"/><path class="cls-18" d="M104.58,57.62h0a1.84,1.84,0,0,0-3.67,0V59.3a13.44,13.44,0,0,0-7.47-3.38,11.91,11.91,0,0,0-1.69-.13h-.18C85.3,55.89,80,60,79,65.68a1.84,1.84,0,0,0,1.46,2.14l.34,0a2.14,2.14,0,0,0,.35-.06h0A1.84,1.84,0,0,0,82.9,66.4a9.12,9.12,0,0,1,8.76-6.94h.09a10.2,10.2,0,0,1,1.24.1,9,9,0,0,1,6,3.57h-3.6a1.83,1.83,0,1,0,0,3.66h7.32A1.83,1.83,0,0,0,104.58,65V57.62Z"/><path class="cls-18" d="M155,100.27a1.18,1.18,0,0,0-.53,0,1.17,1.17,0,0,0-1.07.88,5.92,5.92,0,0,1-5.75,4.51h0a6.83,6.83,0,0,1-.78-.06,5.83,5.83,0,0,1-3.92-2.32h2.34a1.19,1.19,0,0,0,0-2.38h-4.76a1.18,1.18,0,0,0-1.18,1.19v4.76h0a1.19,1.19,0,1,0,2.37,0V105.8a8.82,8.82,0,0,0,4.87,2.2,9.45,9.45,0,0,0,1.07.08h0a8.24,8.24,0,0,0,8.31-6.42A1.19,1.19,0,0,0,155,100.27Z"/><path class="cls-18" d="M156,92.62h0a1.19,1.19,0,0,0-2.38,0v1.09a8.79,8.79,0,0,0-4.86-2.2,7.88,7.88,0,0,0-1.09-.08h-.12a8.2,8.2,0,0,0-8.18,6.41,1.19,1.19,0,0,0,.95,1.39l.22,0a1.7,1.7,0,0,0,.22,0h0a1.18,1.18,0,0,0,1.15-.9,5.93,5.93,0,0,1,5.69-4.51h.06a7.36,7.36,0,0,1,.81.06,5.81,5.81,0,0,1,3.91,2.32h-2.34a1.19,1.19,0,1,0,0,2.37h4.76A1.19,1.19,0,0,0,156,97.38V92.62Z"/></svg>