<?xml version="1.0" encoding="UTF-8"?>
<svg width="641px" height="559px" viewBox="0 0 641 559" version="1.1" xmlns="http://www.w3.org/2000/svg" xmlns:xlink="http://www.w3.org/1999/xlink">
    <!-- Generator: Sketch 59.1 (86144) - https://sketch.com -->
    <title>Fill 1</title>
    <desc>Created with Sketch.</desc>
    <g id="/firefox/new/redesign" stroke="none" stroke-width="1" fill="none" fill-rule="evenodd">
        <g id="/new-1312-v3" transform="translate(-608.000000, -4362.000000)" stroke="#FFFFFF" stroke-width="3">
            <g id="section-feature-list" transform="translate(0.000000, 3984.000000)">
                <g id="background">
                    <path d="M779.384938,410.539339 C832.265675,440.882599 851.489935,507.763324 822.958666,561.49905 L821.373981,564.678884 C794.111091,616.189042 813.01148,680.204443 864.297445,708.634751 C915.58341,737.065058 979.824078,719.367875 1008.67985,668.815773 L1010.58273,665.63657 C1041.02445,612.541232 1108.76277,593.5778 1162.91567,623.605287 C1217.3874,653.951706 1237.25183,722.743489 1207.13084,777.112656 C1118.35379,937.676919 916.094678,995.20571 755.546431,905.763635 C594.361789,816.320296 535.730633,613.766431 624.507678,453.202168 C654.311107,399.150669 721.729971,379.550006 776.199176,408.623228 L777.792057,409.581283 L779.384938,410.539339 Z" id="Fill-1" transform="translate(902.143614, 671.555631) rotate(121.000000) translate(-902.143614, -671.555631) "></path>
                </g>
            </g>
        </g>
    </g>
</svg>