<?xml version="1.0" encoding="UTF-8"?>
<svg width="54px" height="47px" viewBox="0 0 54 47" version="1.1" xmlns="http://www.w3.org/2000/svg" xmlns:xlink="http://www.w3.org/1999/xlink">
    <!-- Generator: Sketch 59.1 (86144) - https://sketch.com -->
    <title>Fill 1 Copy 2</title>
    <desc>Created with Sketch.</desc>
    <g id="/firefox/new/redesign" stroke="none" stroke-width="1" fill="none" fill-rule="evenodd">
        <g id="/new-1312-v3" transform="translate(-1156.000000, -5848.000000)" stroke="#FFBA2D" stroke-width="0.899999976">
            <g id="section-customize" transform="translate(67.000000, 5509.000000)">
                <g id="browser-chrome" transform="translate(0.000000, 117.000000)">
                    <g id="noodles" transform="translate(-20.699999, -32.399999)">
                        <path d="M1126.85152,256.839171 C1131.21568,259.298789 1132.79309,264.735839 1130.42698,269.11137 L1130.29553,269.370277 C1128.03457,273.564572 1129.58569,278.768606 1133.81841,281.07288 C1138.05112,283.377153 1143.36173,281.927273 1145.75413,277.81065 L1145.91188,277.551743 C1148.43573,273.227993 1154.03553,271.67455 1158.50486,274.108277 C1163.00047,276.567895 1164.63046,282.16029 1162.1329,286.587602 C1154.77166,299.662413 1138.05112,304.374523 1124.80088,297.125123 C1111.49807,289.875723 1106.68697,273.409228 1114.04821,260.334417 C1116.51949,255.932996 1122.093,254.327772 1126.58861,256.683827 L1126.72007,256.761499 L1126.85152,256.839171 Z" id="Fill-1-Copy-2" transform="translate(1136.951971, 278.063994) rotate(3.000000) translate(-1136.951971, -278.063994) "></path>
                    </g>
                </g>
            </g>
        </g>
    </g>
</svg>